<?xml version="1.0" encoding="UTF-8"?>
<svg width="258px" height="55px" viewBox="0 0 258 55" version="1.1" xmlns="http://www.w3.org/2000/svg" xmlns:xlink="http://www.w3.org/1999/xlink">
    <!-- Generator: Sketch 46.2 (44496) - http://www.bohemiancoding.com/sketch -->
    <title>logo_horizontal</title>
    <desc>Created with Sketch.</desc>
    <defs>
        <linearGradient x1="14.5347534%" y1="82.3376225%" x2="85.4621877%" y2="17.6593137%" id="linearGradient-1">
            <stop stop-color="#C1B698" offset="0%"></stop>
            <stop stop-color="#948969" offset="9.01961%"></stop>
            <stop stop-color="#D5CBAD" offset="21.1765%"></stop>
            <stop stop-color="#C4BA9A" offset="34.1176%"></stop>
            <stop stop-color="#958867" offset="47.0588%"></stop>
            <stop stop-color="#C5BA9C" offset="61.1765%"></stop>
            <stop stop-color="#9A8D6C" offset="80%"></stop>
            <stop stop-color="#968C73" offset="90.1961%"></stop>
            <stop stop-color="#554933" offset="100%"></stop>
        </linearGradient>
        <linearGradient x1="49.9969639%" y1="223.468635%" x2="50.003036%" y2="-123.523985%" id="linearGradient-2">
            <stop stop-color="#645A3F" offset="0%"></stop>
            <stop stop-color="#948969" offset="30.9804%"></stop>
            <stop stop-color="#D5CBAD" offset="47.8431%"></stop>
            <stop stop-color="#968C73" offset="63.9216%"></stop>
            <stop stop-color="#554933" offset="100%"></stop>
        </linearGradient>
    </defs>
    <g id="Page-1" stroke="none" stroke-width="1" fill="none" fill-rule="evenodd">
        <g id="Desktop" transform="translate(-92.000000, -31.000000)" fill-rule="nonzero">
            <g id="logo_horizontal" transform="translate(92.000000, 31.000000)">
                <path d="M23.0275651,54.6629902 L48.194487,29.5726103 L35.3920368,29.5726103 L13.6278714,51.2591912 C16.474732,52.9273897 19.6416539,54.106924 23.0275651,54.6629902 Z M27.4915773,0 C27.9464012,0 28.3843798,0 28.8223583,0.0337009804 L22.7075038,6.11672794 C12.9203675,8.30729167 5.59264931,17.0526961 5.59264931,27.5 C5.59264931,31.8979779 6.88973966,35.9926471 9.13016845,39.4301471 L34.0275651,14.5925245 L45.1960184,14.5925245 C43.6294028,12.4356618 41.6584992,10.5821078 39.4180704,9.1161152 L43.4609495,5.10569853 C50.4349158,10.0934436 55,18.2659314 55,27.5 C55,42.6822917 42.6860643,55 27.4915773,55 C27.0535988,55 26.6156202,54.9831495 26.1607963,54.966299 L32.2756508,48.8832721 C42.0627871,46.7095588 49.4073507,37.9641544 49.4073507,27.5 C49.4073507,23.1020221 48.093415,19.0073529 45.8698315,15.5698529 L20.9724349,40.390625 L9.78713629,40.390625 C11.3705972,42.5474877 13.3246554,44.4178922 15.5650842,45.8838848 L11.5390505,49.8943015 C4.56508423,44.9065564 0,36.7340686 0,27.5 C0,12.3177083 12.3139357,0 27.4915773,0 Z M6.80551302,25.4273897 L19.6079632,25.4273897 L41.3721286,3.74080882 C38.525268,2.07261029 35.3415008,0.89307598 31.9555896,0.337009804 L6.80551302,25.4273897 Z" id="Shape" fill="url(#linearGradient-1)"></path>
                <path d="M75.0068368,19.298893 L73,19.298893 L73,36.701107 L84.9567001,36.701107 L84.9567001,34.8911439 L75.0068368,34.8911439 L75.0068368,19.298893 Z M255.993163,19.298893 L255.993163,27.0369004 L245.790337,27.0369004 L245.790337,19.298893 L243.800365,19.298893 L243.800365,36.701107 L245.790337,36.701107 L245.790337,28.8634686 L255.993163,28.8634686 L255.993163,36.701107 L258,36.701107 L258,19.298893 L255.993163,19.298893 Z M229.263446,27.0535055 C227.391522,26.6549815 226.126709,26.2066421 225.469006,25.7084871 C224.794439,25.2103321 224.457156,24.5295203 224.457156,23.6660517 C224.457156,22.8357934 224.811304,22.1549815 225.502735,21.6236162 C226.194166,21.0756458 227.104831,20.8099631 228.234731,20.8099631 C230.056062,20.8099631 231.759344,21.4409594 233.327712,22.702952 L234.49134,21.1918819 C232.686873,19.7638376 230.61258,19.0498155 228.285324,19.0498155 C226.598906,19.0498155 225.19918,19.498155 224.119872,20.3948339 C223.023701,21.2915129 222.467183,22.4206642 222.467183,23.798893 C222.467183,25.2103321 222.93938,26.2896679 223.86691,27.0535055 C224.777575,27.8173432 226.295351,28.4151292 228.403373,28.8634686 C230.190975,29.2287823 231.405196,29.6605166 232.046035,30.1586716 C232.686873,30.6568266 233.007293,31.3210332 233.007293,32.1678967 C233.007293,33.0645756 232.636281,33.795203 231.911121,34.3431734 C231.185962,34.9077491 230.241568,35.1900369 229.061076,35.1900369 C227.863719,35.1900369 226.801276,34.9907749 225.840018,34.5922509 C224.895624,34.1937269 223.951231,33.5627306 223.006837,32.7158672 L221.758888,34.1605166 C223.86691,36.0202952 226.278487,36.9501845 228.993619,36.9501845 C230.747493,36.9501845 232.197812,36.501845 233.327712,35.5885609 C234.457612,34.6918819 235.030994,33.49631 235.030994,32.0350554 C235.030994,30.6900369 234.558797,29.6273063 233.648131,28.8468635 C232.720602,28.0830258 231.270283,27.4852399 229.263446,27.0535055 Z M204.810392,19.1660517 L196.749316,36.701107 L198.789881,36.701107 L200.881039,32.101476 L201.673655,30.3413284 L205.704193,21.4575646 L209.717867,30.3413284 L210.510483,32.101476 L212.584777,36.701107 L214.726527,36.701107 L206.665451,19.1660517 L204.810392,19.1660517 Z M186.074294,34.5590406 C185.197356,34.9741697 184.185506,35.1900369 183.038742,35.1900369 C181.099362,35.1900369 179.480401,34.4926199 178.164995,33.1143911 C176.84959,31.7195572 176.191887,30.0258303 176.191887,28 C176.191887,25.9575646 176.84959,24.2472325 178.148131,22.8690037 C179.463537,21.5073801 181.082498,20.8099631 183.038742,20.8099631 C185.045579,20.8099631 186.900638,21.6070111 188.60392,23.201107 L189.919325,21.8062731 C188.924339,20.8763838 187.895624,20.1789668 186.850046,19.697417 C185.804467,19.2324723 184.556518,19 183.07247,19 C180.509116,19 178.38423,19.8634686 176.680948,21.6236162 C174.977666,23.3671587 174.134458,25.4926199 174.134458,28 C174.134458,30.5405904 174.960802,32.6660517 176.64722,34.3929889 C178.333637,36.1365314 180.441659,37 182.988149,37 C184.522789,37 185.838195,36.7509225 186.934366,36.2527675 C188.030538,35.7546125 189.076117,35.0239852 190.071103,34.0442804 L188.755697,32.6660517 C187.845032,33.5129151 186.951231,34.1439114 186.074294,34.5590406 Z M152.565178,21.1088561 L158.501367,21.1088561 L158.501367,36.701107 L160.525068,36.701107 L160.525068,21.1088561 L166.461258,21.1088561 L166.461258,19.298893 L152.565178,19.298893 L152.565178,21.1088561 Z M142.126253,27.0369004 L131.923428,27.0369004 L131.923428,19.298893 L129.933455,19.298893 L129.933455,36.701107 L131.923428,36.701107 L131.923428,28.8634686 L142.126253,28.8634686 L142.126253,36.701107 L144.116226,36.701107 L144.116226,19.298893 L142.126253,19.298893 L142.126253,27.0369004 Z M113.423428,29.1623616 L118.786235,29.1623616 L118.786235,33.49631 C117.35278,34.6586716 115.649499,35.2232472 113.693254,35.2232472 C111.568368,35.2232472 109.881951,34.5424354 108.617138,33.197417 C107.33546,31.8357934 106.694622,30.1088561 106.694622,28 C106.694622,26.0073801 107.33546,24.3136531 108.617138,22.9188192 C109.881951,21.5073801 111.484047,20.8099631 113.423428,20.8099631 L113.423428,19 C110.876937,19.0166052 108.768915,19.896679 107.13309,21.6568266 C105.463537,23.4335793 104.620328,25.5424354 104.620328,28 C104.620328,30.5738007 105.446673,32.699262 107.099362,34.4261993 C108.735187,36.1365314 110.910665,37 113.625798,37 C116.34093,37 118.701914,36.1199262 120.708751,34.3431734 L120.708751,27.402214 L113.423428,27.402214 L113.423428,29.1623616 Z M93.523701,36.701107 L95.5136737,36.701107 L95.5136737,19.298893 L93.523701,19.298893 L93.523701,36.701107 Z" id="Shape" fill="url(#linearGradient-2)"></path>
            </g>
        </g>
    </g>
</svg>